<svg xmlns="http://www.w3.org/2000/svg" width="30.003" height="30.003" viewBox="0 0 512 512">
  <defs>
    <style>
      .cls-1 {
        fill: #aaa;
        fill-rule: evenodd;
      }
    </style>
  </defs>
  <path id="Preenchimento_de_Cor_1" data-name="Preenchimento de Cor 1" class="cls-1" d="M109,0H321c67.887,0,107.466-3.394,147,26,20.277,15.076,34.688,41.05,42,69,5.388,20.594,2,50.145,2,74V315c0,41.356,4.5,92.086-8,122-8.353,19.991-23.262,40.243-40,52-41.485,29.138-97.588,23-167,23H163c-22.1,0-49.052,2.994-68-2-30.167-7.951-56.263-23.6-72-46C-1.974,428.443,0,392.963,0,333V175C0,131.746-2.211,88.7,14,62,28.147,38.7,48.626,18.989,75,8c6.286-2.619,13.793-4.373,20-6C99.744,0.756,105.4,2.236,109,0Zm2,34c-5.485,3.421-17.65,3.324-24,6A92.3,92.3,0,0,0,46,75c-14.227,23.055-12,61.274-12,99V338c0,48.582-1.627,81.257,19,109,24.4,32.814,62.605,31,119,31H297c59.351,0,115.244,6.842,150-19,32.5-24.168,31-64.562,31-121V164c0-52.8-.741-88.528-31-111-30.877-22.93-66.208-19-119-19H111Zm228,86c33.141-.571,50.839,9.167,63,29,23.654,38.576-6.338,80.089-39,89-42.278,11.535-84.28-33.944-71-75,4.6-14.233,14.318-27.754,26-35C324.106,124.212,332.934,124.138,339,120Zm4,34c-8.983,6.673-16.029,9.145-19,22-3.879,16.784,17.351,34.028,34,28,11.434-4.14,24.557-23.3,14-39C366.543,156.883,357.348,153.522,343,154ZM195,244c40.426-.422,55.164,14.509,72,37,6.968,9.308,16.685,16.935,23,27h1v-1c8.41-5.624,14.792-13.728,25-18,15.534-6.5,41.482-4.716,55,2,29.423,14.619,49.636,55.665,72,79,0.426,10.305-1.684,17.583-9,20-14.959,11.047-27.506-12.734-33-19-6.057-6.907-13.516-13.683-19-21-10.148-13.539-26.268-39.5-54-28-6.18,2.563-10.469,7.747-15,12,0.631,1.754.193,0.971,1,2,4.694,13.1,16.893,13.42,17,33-3.076,3.41-3.027,7.242-8,9-14.674,13.026-30.512-13.673-36-21-12.019-16.049-27.982-29.95-40-46-6.145-8.207-12.75-20.04-21-26-4.978-3.6-16.278-9.346-26-7-18.835,4.545-27.021,18.678-37,32-13.58,18.13-31.415,33.874-45,52-9.5,12.674-17.087,31-39,31-3.813-3.706-7.293-7.188-11-11-0.1-23.383,17.841-31.458,28-45,14.133-18.839,31.05-35.4,45-54,5.991-7.988,12.036-18.091,20-24a95.637,95.637,0,0,1,19-11C184.679,246.081,190.87,246.634,195,244Z"/>
</svg>
